<?xml version='1.0' encoding='iso-8859-1'?>
<svg version="1.1" xmlns="http://www.w3.org/2000/svg" viewBox="0 0 510.992 510.992" xmlns:xlink="http://www.w3.org/1999/xlink" enable-background="new 0 0 510.992 510.992">
  <g>
    <g>
      <path d="m397.923,92.306l-22.113-9.677h-64.64c-6.828-4.286-29.164-16.901-55.672-16.901s-48.855,12.622-55.684,16.902h-64.627l-22.138,9.677-113.049,113.47 74.438,74.514 54.682-54.682v219.653h252.772v-219.62l54.65,54.65 74.451-74.514-113.07-113.472zm38.605,166.249l-70.011-70.011v241.358h-20.593v-311.305h-21.653c-2.408,3.289-4.829,9.99-15.438,16.562-10.609,6.573-17.405,8.137-24.374,10.143v284.6h-57.946v-284.6c-6.969-2.006-13.765-3.571-24.374-10.143-10.609-6.573-13.037-13.273-15.438-16.562h-21.653v311.299h-20.574v-241.384l-70.037,70.043-52.734-52.791 100.172-100.543 16.524-7.224h52.881c1.246,7.096 4.126,14.633 8.482,20.605 2.402,3.289 5.25,6.106 8.521,8.112 5.161,3.162 11.254,6.598 18.229,8.604 1.495,0.428 3.034,0.798 4.612,1.079l6.336-22.841c-15.547-2.804-25.211-9.523-27.267-19.226 7.454-4.318 25.268-13.235 45.299-13.235 20.037,0 37.845,8.917 45.286,13.235-2.05,9.702-11.708,16.422-27.255,19.226l6.33,22.841c1.578-0.281 3.104-0.652 4.599-1.079 6.975-1.999 13.075-5.442 18.229-8.604 3.27-1.999 6.119-4.816 8.521-8.112 4.356-5.972 7.237-13.503 8.482-20.605h52.893l16.498,7.218 100.191,100.549-52.738,52.791z"/>
      <path d="m255.614,115.02c-5.065,0-8.987-0.294-13.298-0.856l-3.245,15.061c2.925,0.422 5.755,0.722 8.731,0.92v57.186h15.368v-57.167c2.976-0.185 5.8-0.485 8.731-0.894l-3.245-15.061c-4.24,0.53-8.073,0.811-13.042,0.811zm7.262,10.532l-4.318,.268v4.331 52.561h-6.145v-52.574-4.318l-4.311-.281c-1.15-0.077-2.299-0.166-3.462-0.281l1.303-6.049c3.175,0.287 6.234,0.422 9.67,0.422 3.328,0 6.311-0.128 9.415-0.402l1.303,6.055c-1.155,0.109-2.298,0.198-3.455,0.268z"/>
    </g>
  </g>
</svg>
